<svg width="56" height="56" viewBox="0 0 56 56" fill="none" xmlns="http://www.w3.org/2000/svg">
<circle cx="28" cy="28" r="28" fill="#FDF8EE"/>
<path d="M25.0396 4.16427C22.4111 4.82845 20.4397 10.1419 19.7826 12.7986C19.1255 15.4553 19.4436 18.9467 20.7579 24.2601C22.0721 29.5735 26.1693 39.1393 22.0674 40.6941C16.8104 42.6866 18.1246 36.0448 14.8389 36.0448C11.5533 36.0448 4.98197 38.7028 9.5819 41.4441C14.1818 44.1854 15.2544 48 19.7826 48C25.4666 48 26.649 46.2066 27.943 44.2439L27.9816 44.1854C29.7897 41.4441 29.9577 33.5586 28.6434 24.2601C28.4487 22.8824 22.7293 24.9243 23.3864 22.2676C24.0435 19.6109 24.7007 17.9504 26.6721 16.9542C28.6434 15.9579 30.6149 14.9616 33.2434 16.9542C35.8719 18.9467 37.8433 23.641 34.5576 23.641C31.9914 23.641 30.6157 24.2485 30.6149 24.9243C30.6101 28.7389 32.0043 29.4031 31.2672 34.0523C30.4897 38.9569 30.9538 40.1158 32.2681 41.4442C33.5824 42.7725 36.868 42.7725 38.1823 42.1083C39.4965 41.4442 40.1537 40.78 41.4679 40.78C42.7822 40.78 44.0964 41.4442 44.7536 40.78C45.4107 40.1158 44.7536 36.1307 42.7822 36.1307C40.8108 36.1307 36.9595 41.0234 34.9424 39.2014C32.9252 37.3794 34.8966 37.2531 34.8966 30.4798C34.8966 27.1589 34.8966 23.5113 38.8394 25.5039C41.5938 26.8958 44.2037 18.6916 41.1242 18.6916C39.8099 18.6916 38.1823 19.6109 36.5243 18.112C34.8663 16.6131 35.7449 6.51703 33.2434 10.2278C30.6149 14.1269 24.3825 12.2203 32.2681 6.90691C35.1915 4.93706 27.6682 3.5001 25.0396 4.16427Z" fill="#767522"/>
</svg>
