<svg width="39" height="46" viewBox="0 0 39 46" fill="none" xmlns="http://www.w3.org/2000/svg">
<path d="M17.9607 0.171742C15.1901 0.866104 13.1121 6.42105 12.4195 9.19852C11.7268 11.976 12.0622 15.6261 13.4475 21.181C14.8328 26.736 19.1514 36.7366 14.8278 38.362C9.28659 40.4451 10.6719 33.5014 7.20862 33.5014C3.74534 33.5014 -3.18117 36.2802 1.6674 39.1461C6.51598 42.0121 7.64655 46 12.4195 46C18.4107 46 19.6571 44.125 21.021 42.0732L21.0617 42.0121C22.9676 39.1461 23.7407 24.319 22 22C21.3877 21.1843 16.6175 22.5338 17 21C17.3825 19.4662 17.7277 18.2723 18.5 17.5C19.2723 16.7277 19.4201 15.6481 22.5 15.3594C25.5799 15.0706 29.263 19.6236 27.5 20C25 20.5338 23.7361 21.1762 23.8373 21.8754C24 23 25.3018 26.5577 24.5249 31.4183C23.7053 36.5458 24.1946 37.7574 25.5799 39.1462C26.9652 40.5349 30.4284 40.5349 31.8137 39.8405C33.199 39.1462 33.8917 38.4518 35.277 38.4518C36.6623 38.4518 38.0476 39.1462 38.7403 38.4518C39.4329 37.7574 38.7403 33.5912 36.6623 33.5912C34.5843 33.5912 30.5249 38.7063 28.3987 36.8015C26.2725 34.8967 28.3505 34.7646 28.3505 27.6834C28.3505 24.2116 28.3505 20.3982 32.5064 22.4813C35.4097 23.9366 38.1606 15.3594 34.9147 15.3594C33.5294 15.3594 31.8137 16.3205 30.0661 14.7535C28.3185 13.1865 29.2446 2.63144 26.6079 6.51087C23.8373 10.5873 17.2681 8.59398 25.5799 3.03904C28.6613 0.97965 20.7313 -0.52262 17.9607 0.171742Z" fill="#767522"/>
</svg>
